<svg width="33" height="28" viewBox="0 0 33 28" fill="none" xmlns="http://www.w3.org/2000/svg">
<path d="M33 13.5956C33 14.3551 32.4357 14.9827 31.7035 15.082L31.5 15.0957L5.132 15.0945L14.658 24.5823C15.245 25.1668 15.2471 26.1167 14.6625 26.7038C14.1312 27.2375 13.2979 27.2877 12.7098 26.8532L12.5412 26.7083L0.441227 14.6594C0.363846 14.5824 0.296635 14.499 0.23959 14.4109C0.223476 14.3844 0.207077 14.3573 0.191528 14.3296C0.177227 14.3059 0.164303 14.2813 0.152111 14.2564C0.135178 14.2202 0.118633 14.1827 0.103611 14.1446C0.091404 14.1151 0.0812149 14.0865 0.0719185 14.0576C0.0608673 14.0218 0.0501289 13.9837 0.0408936 13.945C0.0340271 13.9179 0.0285873 13.8919 0.0238457 13.8658C0.0171738 13.8269 0.0114975 13.7867 0.00744629 13.746C0.00394821 13.715 0.0018425 13.6842 0.000679016 13.6534C0.000377655 13.6348 0 13.6152 0 13.5956L0.000751495 13.5375C0.00189972 13.5081 0.00391006 13.4786 0.00678635 13.4493L0 13.5956C0 13.5009 0.00876617 13.4083 0.0255356 13.3185C0.0294228 13.2971 0.0340576 13.2751 0.0391884 13.2531C0.0498428 13.208 0.0621567 13.1645 0.0763359 13.1219C0.0832939 13.1007 0.091404 13.078 0.100067 13.0556C0.117596 13.0104 0.13665 12.9674 0.157608 12.9255C0.167347 12.9058 0.178249 12.8852 0.189671 12.8647C0.208416 12.8314 0.227726 12.7998 0.248146 12.7689C0.262554 12.7471 0.278507 12.7243 0.295166 12.7019L0.308147 12.6847C0.34856 12.6319 0.392403 12.5818 0.439339 12.5349L0.441139 12.5335L12.5411 0.482589C13.1281 -0.102027 14.0779 -0.10006 14.6625 0.486981C15.1939 1.02065 15.2406 1.85414 14.8036 2.44051L14.6581 2.60845L5.136 12.0943L31.5 12.0955C32.3284 12.0955 33 12.7671 33 13.5956Z" fill="#8A8A8A"/>
</svg>
