<svg width="40" height="30" viewBox="0 0 40 30" fill="none" xmlns="http://www.w3.org/2000/svg">
<path d="M5 3.75C4.3125 3.75 3.75 4.3125 3.75 5V6.72656L17.2266 17.7891C18.8438 19.1172 21.1641 19.1172 22.7812 17.7891L36.25 6.72656V5C36.25 4.3125 35.6875 3.75 35 3.75H5ZM3.75 11.5781V25C3.75 25.6875 4.3125 26.25 5 26.25H35C35.6875 26.25 36.25 25.6875 36.25 25V11.5781L25.1562 20.6875C22.1562 23.1484 17.8359 23.1484 14.8438 20.6875L3.75 11.5781ZM0 5C0 2.24219 2.24219 0 5 0H35C37.7578 0 40 2.24219 40 5V25C40 27.7578 37.7578 30 35 30H5C2.24219 30 0 27.7578 0 25V5Z" fill="#B79D8A"/>
</svg>
