<svg width="33" height="28" viewBox="0 0 33 28" fill="none" xmlns="http://www.w3.org/2000/svg">
<path d="M1.98775e-07 13.5501C2.09915e-07 12.7907 0.564308 12.1631 1.29646 12.0637L1.5 12.05L27.868 12.0512L18.342 2.56347C17.755 1.9789 17.7529 1.02909 18.3375 0.442002C18.8688 -0.0917166 19.7021 -0.141928 20.2902 0.292547L20.4588 0.437433L32.5588 12.4863C32.6362 12.5634 32.7034 12.6468 32.7604 12.7348C32.7765 12.7613 32.7929 12.7885 32.8085 12.8161C32.8228 12.8398 32.8357 12.8645 32.8479 12.8894C32.8648 12.9256 32.8814 12.963 32.8964 13.0012C32.9086 13.0306 32.9188 13.0593 32.9281 13.0881C32.9391 13.1239 32.9499 13.1621 32.9591 13.2008C32.966 13.2278 32.9714 13.2538 32.9762 13.28C32.9828 13.3188 32.9885 13.359 32.9926 13.3997C32.9961 13.4308 32.9982 13.4615 32.9993 13.4923C32.9996 13.511 33 13.5305 33 13.5501L32.9992 13.6083C32.9981 13.6377 32.9961 13.6671 32.9932 13.6965L33 13.5501C33 13.6448 32.9912 13.7374 32.9745 13.8272C32.9706 13.8487 32.9659 13.8707 32.9608 13.8926C32.9502 13.9378 32.9378 13.9813 32.9237 14.0239C32.9167 14.0451 32.9086 14.0677 32.8999 14.0902C32.8824 14.1353 32.8634 14.1783 32.8424 14.2202C32.8327 14.24 32.8218 14.2606 32.8103 14.281C32.7916 14.3143 32.7723 14.346 32.7519 14.3769C32.7374 14.3987 32.7215 14.4214 32.7048 14.4438L32.6919 14.4611C32.6514 14.5139 32.6076 14.5639 32.5607 14.6109L32.5589 14.6123L20.4589 26.6632C19.8719 27.2478 18.9221 27.2458 18.3375 26.6588C17.8061 26.1251 17.7594 25.2916 18.1964 24.7052L18.3419 24.5373L27.864 15.0515L1.5 15.0503C0.671573 15.0503 1.86621e-07 14.3786 1.98775e-07 13.5501Z" fill="#606D5B"/>
</svg>
