<svg width="58" height="66" viewBox="0 0 58 66" fill="none" xmlns="http://www.w3.org/2000/svg">
<path d="M24.1887 0.213272C22.1398 0.584564 20.1871 1.53341 18.4681 2.99106C17.6018 3.73363 17.3268 4.26994 17.5193 4.83374C17.6843 5.28754 18.0006 5.49381 18.5781 5.49381C18.8944 5.49381 19.2107 5.30129 19.857 4.72373C20.8884 3.80239 22.1123 3.10107 23.5149 2.61977C24.56 2.27598 24.6288 2.26223 28.6304 2.26223H32.6871L33.8972 2.68853C35.5886 3.29359 36.51 3.8849 37.7751 5.15003C39.3428 6.71769 40.3054 8.50537 40.5391 10.2931L40.6354 10.9944H28.6442H16.6667V10.7056C16.6667 10.5406 16.763 9.99052 16.9005 9.46797C17.1067 8.58788 17.1067 8.50537 16.8867 8.17533C16.5704 7.69404 16.0341 7.50152 15.5528 7.69404C14.769 8.02407 14.4527 9.34421 14.3702 12.7408L14.3015 15.3948H10.7949H7.302L6.97196 15.7386C6.65568 16.0549 6.62818 16.1649 6.62818 17.5538C6.62818 19.3002 6.76569 19.864 7.357 20.6479C7.97582 21.4592 8.92466 21.913 10.1348 21.968L11.0974 22.023V23.7557C11.0974 25.4334 11.1111 25.5434 11.5374 26.4235C12.4175 28.2936 14.0952 29.49 16.0616 29.655L17.0242 29.7375L17.3543 30.6864C17.8081 32.0065 18.8394 33.6429 19.9808 34.8256L20.9296 35.8157V37.6859V39.5698L17.533 39.6386C15.1265 39.6936 13.8477 39.7761 13.1876 39.9273C9.8185 40.7112 6.91696 42.3201 4.68923 44.6303C2.55776 46.858 1.15512 49.4433 0.412542 52.5236C0.151265 53.5825 0.123763 54.2288 0.068757 59.4956L0 65.2987L0.357537 65.6562L0.701322 66H28.6304H56.5595L56.8896 65.6562C57.2334 65.3262 57.2334 65.2987 57.2334 62.6997C57.2334 60.1006 57.2334 60.0731 56.8896 59.7431C56.4495 59.2893 55.817 59.2893 55.3769 59.7431C55.0469 60.0594 55.0331 60.1419 55.0331 61.9433V63.7998H51.7328H48.4325V53.9675C48.4325 48.5632 48.4737 44.1353 48.515 44.1353C48.7212 44.1353 50.2476 45.4416 51.114 46.3492C53.4792 48.852 54.7306 51.7535 54.9919 55.3289C55.0606 56.374 55.1294 56.6215 55.3907 56.8828C55.8307 57.3229 56.4633 57.2954 56.9171 56.8416C57.2746 56.484 57.2746 56.4565 57.1783 55.0814C56.7108 47.7244 51.5678 41.7013 44.307 39.9823C43.3582 39.7623 42.4918 39.6936 39.7416 39.6386L36.3312 39.5698V37.6584V35.7469L36.95 35.1831C38.1739 34.0417 39.5903 31.8278 40.0441 30.3013L40.2091 29.7375L41.1855 29.655C43.1657 29.49 44.8433 28.2936 45.7234 26.4235C46.1497 25.5434 46.1635 25.4334 46.1635 23.7557V21.9955H46.9335C48.0199 21.9955 48.9275 21.638 49.6013 20.9641C50.3989 20.1666 50.6327 19.4102 50.6327 17.5675C50.6327 16.1649 50.6189 16.0549 50.2889 15.7386L49.9589 15.3948H46.4385H42.9319V13.2771C42.9319 11.9982 42.8494 10.6918 42.7256 9.96302C41.8593 5.04002 37.8851 1.06586 32.9621 0.199524C31.367 -0.0755081 25.7426 -0.0617523 24.1887 0.213272ZM40.7317 14.2947V15.3948H28.6304H16.5292V14.2947V13.1946H28.6304H40.7317V14.2947ZM48.4325 18.2964C48.4325 18.8877 48.3637 19.0527 48.0337 19.3965L47.6349 19.7953H28.6304H9.62598L9.22719 19.3965C8.89716 19.0527 8.8284 18.8877 8.8284 18.2964V17.5951H28.6304H48.4325V18.2964ZM16.5292 24.7458C16.5292 27.8261 16.5979 27.6473 15.5116 27.331C15.154 27.221 14.6865 26.9048 14.2602 26.4647C13.4489 25.6534 13.2289 25.0621 13.2289 23.6594C13.2289 22.7931 13.2701 22.6281 13.5726 22.3393C13.8752 22.023 14.0127 21.9955 15.2228 21.9955H16.5292V24.7458ZM38.5039 25.1171C38.4489 28.0186 38.4077 28.3349 38.0914 29.3112C37.5551 30.9477 36.8263 32.1165 35.5886 33.3542C34.351 34.5918 33.1821 35.3206 31.5457 35.8569C30.6244 36.1594 30.2531 36.2145 28.6304 36.2145C27.0078 36.2145 26.6365 36.1594 25.7151 35.8569C24.0787 35.3206 22.9098 34.5918 21.6722 33.3542C20.4346 32.1165 19.7058 30.9477 19.1695 29.3112C18.8532 28.3349 18.8119 28.0186 18.7569 25.1171L18.7019 21.9955H28.6304H38.5589L38.5039 25.1171ZM43.6882 22.3393C43.9907 22.6281 44.032 22.7931 44.032 23.6594C44.032 25.0621 43.812 25.6534 43.0006 26.4647C42.5744 26.9048 42.1068 27.221 41.7493 27.331C40.6629 27.6473 40.7317 27.8261 40.7317 24.7458V21.9955H42.038C43.2482 21.9955 43.3857 22.023 43.6882 22.3393ZM24.4775 37.7546C25.8389 38.2772 27.6541 38.5384 29.2492 38.4559C30.5969 38.3734 32.4396 37.9746 33.1546 37.6171C34.1722 37.0945 34.131 37.0533 34.131 38.9097V40.5599L33.5672 41.1787C32.5633 42.2651 30.7481 42.8976 28.6304 42.8976C26.5127 42.8976 24.6975 42.2651 23.6937 41.1787L23.1299 40.5599V38.896C23.1299 37.3696 23.1436 37.2321 23.3774 37.3283C23.5012 37.3833 23.9962 37.5758 24.4775 37.7546ZM22.1398 42.7326C23.1436 43.7365 24.23 44.3553 25.7426 44.7678C27.1453 45.1529 30.2668 45.1254 31.752 44.6991C33.2096 44.2865 34.2823 43.654 35.2449 42.6226L36.0149 41.7975H38.3802H40.7317V47.2981V52.7986H28.6304H16.5292V47.2981V41.7975H18.8669H21.2184L22.1398 42.7326ZM14.329 47.3668V52.7986H12.6788H11.0286V47.8481V42.8976L11.4137 42.7464C11.6887 42.6364 13.9164 42.0175 14.3015 41.935C14.3152 41.935 14.329 44.3828 14.329 47.3668ZM45.4622 42.6226L46.1635 42.8564L46.2047 47.8206L46.2322 52.7986H44.5821H42.9319V47.3806V41.9625L43.8532 42.1688C44.362 42.2926 45.0771 42.4851 45.4622 42.6226ZM8.8284 53.9675V63.7998H5.52807H2.22773V59.4131C2.22773 56.1127 2.28273 54.7376 2.434 53.8163C2.9428 50.8872 4.13917 48.4807 6.10562 46.3905C6.93071 45.5104 8.56713 44.1353 8.7734 44.1353C8.8009 44.1353 8.8284 48.5632 8.8284 53.9675ZM46.2322 59.3993V63.7998H28.6304H11.0286V59.3993V54.9989H28.6304H46.2322V59.3993Z" fill="#F8F8F9"/>
</svg>
