<svg width="49" height="66" viewBox="0 0 49 66" fill="none" xmlns="http://www.w3.org/2000/svg">
<path d="M44.4196 0.138672C31.3265 1.28432 24.2753 6.83528 24.6844 15.6732C24.7663 17.228 24.9981 18.66 25.4073 19.9694L25.6255 20.6649L25.0117 21.8788C24.6844 22.5607 24.1798 23.7064 23.8934 24.4292L23.3751 25.7522L22.8296 24.8384C22.1476 23.7064 21.4384 22.738 20.4291 21.5651L19.6381 20.6513L19.5563 19.151C19.4608 17.378 19.2153 16.396 18.5061 14.923C17.3877 12.5908 15.3555 10.9542 12.5869 10.1631C9.77731 9.3448 6.62677 9.37208 2.13963 10.2313C0.557543 10.545 0.134743 10.736 0.0119943 11.2269C-0.178948 11.9907 1.94869 16.6961 3.62625 19.2465C7.19959 24.6611 11.4821 26.3659 15.9011 24.1292C16.4739 23.8428 17.3059 23.3245 17.756 22.9699L18.5743 22.3289L19.2289 23.0653C20.1018 24.0337 21.3566 25.9295 22.0249 27.307L22.5841 28.4254L22.3249 29.5846C22.1749 30.2257 21.984 31.2758 21.9021 31.9305L21.7248 33.1307H11.9322C1.04854 33.1307 1.49861 33.0898 1.10309 34.0172C0.816678 34.7128 0.830317 39.9364 1.11673 40.4956C1.47134 41.1912 1.79867 41.3139 3.24437 41.3139H4.55368L5.67206 47.5468C6.2858 50.9838 7.26779 56.3983 7.84061 59.5762C8.60438 63.8724 8.94535 65.4272 9.13629 65.6727L9.38179 66H22.1067H34.8316L35.1044 65.6863C35.3363 65.4408 35.7318 63.395 37.5184 53.4524C38.6914 46.8922 39.6461 41.4776 39.6461 41.4094C39.6461 41.3549 40.2462 41.3139 40.9827 41.3139C43.2467 41.3139 43.3285 41.1639 43.3285 37.2223C43.3285 34.9174 43.2876 34.2627 43.124 33.949C42.6875 33.1034 43.0148 33.1307 32.8813 33.1307H23.6479L23.7433 32.3397C23.9888 30.2393 24.739 27.4025 25.68 25.0293C26.1165 23.9655 26.8939 22.2607 27.0439 22.097C27.0576 22.0697 27.6031 22.2743 28.2441 22.5471C30.9446 23.7064 34.4088 24.1701 36.5501 23.6518C41.1191 22.5471 44.4333 18.4827 46.52 11.4452C47.2701 8.88109 47.9384 5.02133 48.1703 1.92535C48.2657 0.725143 48.2521 0.629669 47.9521 0.315979C47.6793 0.0295639 47.5429 -0.0113525 46.6837 0.00228882C46.1517 0.0159302 45.1288 0.0704803 44.4196 0.138672ZM46.1654 3.01644C45.7426 7.55813 44.4742 12.4408 42.9057 15.5913C39.9189 21.5787 35.4999 23.3518 29.458 20.9923C27.8622 20.3785 27.9168 20.4876 28.6806 19.342C30.2354 16.9825 32.9495 14.0365 35.0498 12.3999C35.9091 11.7316 36.1137 11.3088 35.8136 10.7769C35.6636 10.5041 35.4863 10.4086 35.1044 10.3813C34.668 10.3404 34.477 10.4223 33.8769 10.9269C31.4492 12.9181 29.5262 14.9367 27.8213 17.2825C27.2758 18.0054 26.9621 18.3327 26.9212 18.21C26.4984 17.1052 26.4847 13.6274 26.8939 12.0589C28.0805 7.59905 32.1312 4.47578 38.6914 2.93461C40.7235 2.45726 43.915 2.00718 45.8653 1.91171L46.2745 1.89807L46.1654 3.01644ZM11.414 11.7861C13.9235 12.359 15.8602 13.7774 16.8012 15.7414C17.2377 16.6415 17.7832 18.6191 17.6468 18.7691C17.6059 18.7964 17.415 18.6737 17.1968 18.4964C16.3784 17.8008 14.3599 16.587 12.846 15.8641C11.1003 15.0185 10.7047 15.0049 10.3365 15.7414C10.0228 16.396 10.3092 16.6961 12.3005 17.7053C13.2825 18.1963 14.4417 18.8646 14.8918 19.1647C16.092 19.9966 17.1422 20.8422 17.1422 20.9923C17.1422 21.1832 15.6147 22.1788 14.5781 22.6698C13.4052 23.2154 11.7276 23.3381 10.5274 22.9562C8.75441 22.4107 6.92682 20.7877 5.2629 18.2918C4.3491 16.9279 3.02615 14.4048 2.42605 12.85L2.15327 12.1407L2.79429 12.018C3.1489 11.9362 3.9263 11.8134 4.52641 11.7316C5.12651 11.6497 5.80845 11.5543 6.02666 11.527C6.96774 11.3906 10.432 11.5543 11.414 11.7861ZM41.4191 37.2223V39.4045H22.1203H2.82157V37.2223V35.0401H22.1203H41.4191V37.2223ZM37.7367 41.4776C37.7367 41.5731 36.8229 46.6876 35.7181 52.8386L33.6996 64.0224L22.1613 64.0633C11.2503 64.0906 10.6093 64.0769 10.5411 63.8587C10.4865 63.6678 8.84988 54.6253 6.55857 41.7504L6.47674 41.3139H22.1067C34.5179 41.3139 37.7367 41.3549 37.7367 41.4776Z" fill="#F8F8F9"/>
</svg>
